<svg width="24" height="24" viewBox="0 0 24 24" fill="none" xmlns="http://www.w3.org/2000/svg">
<g clip-path="url(#clip0_159_29)">
<path opacity="0.5" d="M11.0212 4.95833L10.4699 4.41979C10.1953 4.1515 10.0589 4.01833 9.9146 3.90083C9.2938 3.39817 8.53229 3.09002 7.72946 3.01664C7.54303 3 7.34857 3 6.96166 3C6.07658 3 5.63454 3 5.26568 3.06854C4.47365 3.21465 3.74511 3.59057 3.17506 4.14724C2.60503 4.70391 2.21998 5.41549 2.07017 6.18914C2 6.55046 2 6.98325 2 7.84687V15.5333C2 18.9943 4.75517 21.8 8.15385 21.8H15.8462C19.2448 21.8 22 18.9943 22 15.5333V10.099C21.9278 9.0718 21.7434 8.39814 21.2752 7.88996C21.2045 7.81271 21.1295 7.73917 21.0508 7.66965C20.1937 6.91667 18.8737 6.91667 16.2354 6.91667H15.8606C14.7049 6.91667 14.1265 6.91667 13.5872 6.76686C13.2912 6.68422 13.0062 6.56857 12.7372 6.42218C12.2482 6.15683 11.8391 5.75636 11.0212 4.95833Z" fill="#F9CB41"/>
<g opacity="0.5" filter="url(#filter0_i_159_29)">
<path d="M11.0212 4.95833L10.4699 4.41979C10.1953 4.1515 10.0589 4.01833 9.9146 3.90083C9.2938 3.39817 8.53229 3.09002 7.72946 3.01664C7.54303 3 7.34857 3 6.96166 3C6.07658 3 5.63454 3 5.26568 3.06854C4.47365 3.21465 3.74511 3.59057 3.17506 4.14724C2.60503 4.70391 2.21998 5.41549 2.07017 6.18914C2 6.55046 2 6.98325 2 7.84687V15.5333C2 18.9943 4.75517 21.8 8.15385 21.8H15.8462C19.2448 21.8 22 18.9943 22 15.5333V10.099C21.9278 9.0718 21.7434 8.39814 21.2752 7.88996C21.2045 7.81271 21.1295 7.73917 21.0508 7.66965C20.1937 6.91667 18.8737 6.91667 16.2354 6.91667H15.8606C14.7049 6.91667 14.1265 6.91667 13.5872 6.76686C13.2912 6.68422 13.0062 6.56857 12.7372 6.42218C12.2482 6.15683 11.8391 5.75636 11.0212 4.95833Z" fill="#FFC207"/>
</g>
<g filter="url(#filter1_d_159_29)">
<path d="M18 8H6C3.79086 8 2 9.15127 2 10.5714V14.4286C2 15.8487 3.79086 17 6 17H18C20.2091 17 22 15.8487 22 14.4286V10.5714C22 9.15127 20.2091 8 18 8Z" fill="white"/>
</g>
<g filter="url(#filter2_d_159_29)">
<path d="M17 9H7C4.23858 9 2 10.4625 2 12.2666C2 14.0708 4.23858 15.5333 7 15.5333H17C19.7614 15.5333 22 14.0708 22 12.2666C22 10.4625 19.7614 9 17 9Z" fill="white"/>
</g>
<g filter="url(#filter3_n_159_29)">
<path d="M22 13.4444V11.1445C21.9988 10.4734 21.6262 9.86035 21.0369 9.55991L20.8874 9.48371C20.6074 9.34094 20.2985 9.2666 19.9852 9.2666H12.8432C12.2912 9.2666 11.7494 9.4178 11.2746 9.70436L10.4177 10.2214C9.94286 10.508 9.40106 10.6592 8.84909 10.6592H4.73505C3.22452 10.6592 2 11.9062 2 13.4444C2 17.383 2 19.3528 3.172 20.5759C4.344 21.7988 6.229 21.7999 10 21.7999H14C17.7711 21.7999 19.6571 21.7999 20.828 20.5759C21.9991 19.3517 22 17.383 22 13.4444Z" fill="#FFA800" fill-opacity="0.69"/>
</g>
<g filter="url(#filter4_d_159_29)">
<rect x="13" y="14" width="10" height="10" rx="5" fill="white" shape-rendering="crispEdges"/>
<path d="M18.171 18.5212C18.0188 18.5139 17.9156 18.3892 17.9109 18.2368C17.9074 18.1219 17.9046 17.9651 17.9046 17.762C17.9043 17.6037 17.9064 17.4454 17.9109 17.2871C17.9156 17.1348 18.0188 17.0101 18.171 17.0028C18.2473 16.9991 18.3237 16.9991 18.4 17.0028C18.5522 17.0101 18.6555 17.1348 18.6601 17.2871C18.6636 17.4021 18.6665 17.5588 18.6665 17.762C18.6665 17.9651 18.6636 18.1219 18.6601 18.2368C18.6554 18.3891 18.5522 18.5139 18.4 18.5212C18.3237 18.5249 18.2473 18.5249 18.171 18.5212Z" stroke="black" stroke-width="0.3" stroke-linecap="round" stroke-linejoin="round"/>
<path d="M17.2186 20.6164C17.0664 20.6091 16.9632 20.4844 16.9585 20.332C16.955 20.2171 16.9521 20.0603 16.9521 19.8572C16.9521 19.654 16.955 19.4973 16.9585 19.3823C16.9632 19.23 17.0664 19.1053 17.2186 19.0979C17.2949 19.0943 17.3713 19.0943 17.4476 19.0979C17.5998 19.1053 17.7031 19.2299 17.7077 19.3823C17.7112 19.4973 17.7141 19.654 17.7141 19.8572C17.7141 20.0603 17.7112 20.2171 17.7077 20.332C17.703 20.4843 17.5998 20.6091 17.4476 20.6164C17.3713 20.6201 17.2949 20.6201 17.2186 20.6164Z" stroke="black" stroke-width="0.3" stroke-linecap="round" stroke-linejoin="round"/>
<path d="M18.5852 19.8727C18.4197 19.8841 18.3013 19.9975 18.2921 20.1632C18.2882 20.2329 18.2855 20.32 18.2855 20.4286C18.285 20.5256 18.2882 20.6227 18.2949 20.7195C18.3063 20.8707 18.4163 20.9718 18.5674 20.983C18.6909 20.9923 18.8744 21 19.1427 21C19.411 21 19.5945 20.9923 19.7179 20.983C19.8691 20.9718 19.979 20.8707 19.9904 20.7196C19.996 20.646 19.9999 20.5509 19.9999 20.4286C19.9999 20.3062 19.9959 20.2112 19.9904 20.1376C19.9791 19.9865 19.8691 19.8854 19.7179 19.8741C19.5945 19.8649 19.411 19.8572 19.1427 19.8572C18.8884 19.8572 18.7093 19.8641 18.5852 19.8727Z" stroke="black" stroke-width="0.3" stroke-linecap="round" stroke-linejoin="round"/>
<path d="M19.6087 19.8673L19.596 19.5315C19.5918 19.4141 19.5423 19.303 19.4578 19.2214C19.3733 19.1398 19.2604 19.0943 19.1429 19.0943C19.0255 19.0943 18.9126 19.1398 18.8281 19.2214C18.7436 19.303 18.6941 19.4141 18.6899 19.5315L18.6771 19.8673M19.1429 20.3334V20.5239M16 17.0001H16.2857C16.311 17.0001 16.3352 17.0102 16.3531 17.028C16.3709 17.0459 16.381 17.0701 16.381 17.0954V18.5239M16.9524 17.0001H17.2381C17.2634 17.0001 17.2876 17.0102 17.3055 17.028C17.3233 17.0459 17.3334 17.0701 17.3334 17.0954V18.5239M16 19.0953H16.2857C16.311 19.0953 16.3352 19.1053 16.3531 19.1232C16.3709 19.1411 16.381 19.1653 16.381 19.1906V20.6191" stroke="black" stroke-width="0.3" stroke-linecap="round" stroke-linejoin="round"/>
</g>
</g>
<defs>
<filter id="filter0_i_159_29" x="2" y="3" width="20" height="22.8" filterUnits="userSpaceOnUse" color-interpolation-filters="sRGB">
<feFlood flood-opacity="0" result="BackgroundImageFix"/>
<feBlend mode="normal" in="SourceGraphic" in2="BackgroundImageFix" result="shape"/>
<feColorMatrix in="SourceAlpha" type="matrix" values="0 0 0 0 0 0 0 0 0 0 0 0 0 0 0 0 0 0 127 0" result="hardAlpha"/>
<feOffset dy="4"/>
<feGaussianBlur stdDeviation="2"/>
<feComposite in2="hardAlpha" operator="arithmetic" k2="-1" k3="1"/>
<feColorMatrix type="matrix" values="0 0 0 0 0.182692 0 0 0 0 0.126955 0 0 0 0 0.0193232 0 0 0 0.2 0"/>
<feBlend mode="normal" in2="shape" result="effect1_innerShadow_159_29"/>
</filter>
<filter id="filter1_d_159_29" x="1" y="8" width="22" height="12" filterUnits="userSpaceOnUse" color-interpolation-filters="sRGB">
<feFlood flood-opacity="0" result="BackgroundImageFix"/>
<feColorMatrix in="SourceAlpha" type="matrix" values="0 0 0 0 0 0 0 0 0 0 0 0 0 0 0 0 0 0 127 0" result="hardAlpha"/>
<feOffset dy="2"/>
<feGaussianBlur stdDeviation="0.5"/>
<feComposite in2="hardAlpha" operator="out"/>
<feColorMatrix type="matrix" values="0 0 0 0 0 0 0 0 0 0 0 0 0 0 0 0 0 0 0.02 0"/>
<feBlend mode="normal" in2="BackgroundImageFix" result="effect1_dropShadow_159_29"/>
<feBlend mode="normal" in="SourceGraphic" in2="effect1_dropShadow_159_29" result="shape"/>
</filter>
<filter id="filter2_d_159_29" x="-2" y="4" width="28" height="14.5333" filterUnits="userSpaceOnUse" color-interpolation-filters="sRGB">
<feFlood flood-opacity="0" result="BackgroundImageFix"/>
<feColorMatrix in="SourceAlpha" type="matrix" values="0 0 0 0 0 0 0 0 0 0 0 0 0 0 0 0 0 0 127 0" result="hardAlpha"/>
<feOffset dy="-1"/>
<feGaussianBlur stdDeviation="2"/>
<feComposite in2="hardAlpha" operator="out"/>
<feColorMatrix type="matrix" values="0 0 0 0 0 0 0 0 0 0 0 0 0 0 0 0 0 0 0.12 0"/>
<feBlend mode="normal" in2="BackgroundImageFix" result="effect1_dropShadow_159_29"/>
<feBlend mode="normal" in="SourceGraphic" in2="effect1_dropShadow_159_29" result="shape"/>
</filter>
<filter id="filter3_n_159_29" x="2" y="9.2666" width="20" height="12.5333" filterUnits="userSpaceOnUse" color-interpolation-filters="sRGB">
<feFlood flood-opacity="0" result="BackgroundImageFix"/>
<feBlend mode="normal" in="SourceGraphic" in2="BackgroundImageFix" result="shape"/>
<feTurbulence type="fractalNoise" baseFrequency="2 2" stitchTiles="stitch" numOctaves="3" result="noise" seed="5296" />
<feColorMatrix in="noise" type="luminanceToAlpha" result="alphaNoise" />
<feComponentTransfer in="alphaNoise" result="coloredNoise1">
<feFuncA type="discrete" tableValues="1 1 1 1 1 1 1 1 1 1 1 1 1 1 1 1 1 1 1 1 1 1 1 1 1 1 1 1 1 1 1 1 1 1 1 1 1 1 1 1 1 1 1 1 1 1 1 1 1 1 1 0 0 0 0 0 0 0 0 0 0 0 0 0 0 0 0 0 0 0 0 0 0 0 0 0 0 0 0 0 0 0 0 0 0 0 0 0 0 0 0 0 0 0 0 0 0 0 0 0 "/>
</feComponentTransfer>
<feComposite operator="in" in2="shape" in="coloredNoise1" result="noise1Clipped" />
<feFlood flood-color="rgba(0, 0, 0, 0.25)" result="color1Flood" />
<feComposite operator="in" in2="noise1Clipped" in="color1Flood" result="color1" />
<feMerge result="effect1_noise_159_29">
<feMergeNode in="shape" />
<feMergeNode in="color1" />
</feMerge>
</filter>
<filter id="filter4_d_159_29" x="5" y="6" width="18" height="18" filterUnits="userSpaceOnUse" color-interpolation-filters="sRGB">
<feFlood flood-opacity="0" result="BackgroundImageFix"/>
<feColorMatrix in="SourceAlpha" type="matrix" values="0 0 0 0 0 0 0 0 0 0 0 0 0 0 0 0 0 0 127 0" result="hardAlpha"/>
<feOffset dx="-4" dy="-4"/>
<feGaussianBlur stdDeviation="2"/>
<feComposite in2="hardAlpha" operator="out"/>
<feColorMatrix type="matrix" values="0 0 0 0 0 0 0 0 0 0 0 0 0 0 0 0 0 0 0.1 0"/>
<feBlend mode="normal" in2="BackgroundImageFix" result="effect1_dropShadow_159_29"/>
<feBlend mode="normal" in="SourceGraphic" in2="effect1_dropShadow_159_29" result="shape"/>
</filter>
<clipPath id="clip0_159_29">
<rect width="20" height="18.8" fill="white" transform="translate(2 3)"/>
</clipPath>
</defs>
</svg>
